<mxfile host="app.diagrams.net" modified="2023-04-20T08:24:34.501Z" agent="Mozilla/5.0 (Windows NT 10.0; Win64; x64) AppleWebKit/537.36 (KHTML, like Gecko) Chrome/112.0.0.0 Safari/537.36" etag="XkaTZ5lg141bHCHzkZHb" version="21.1.4" type="github">
  <diagram id="lubm0k9jyPDdO1Zf7azb" name="Sayfa -1">
    <mxGraphModel dx="2117" dy="541" grid="1" gridSize="10" guides="1" tooltips="1" connect="1" arrows="1" fold="1" page="1" pageScale="1" pageWidth="827" pageHeight="1169" math="0" shadow="0">
      <root>
        <mxCell id="WIyWlLk6GJQsqaUBKTNV-0" />
        <mxCell id="WIyWlLk6GJQsqaUBKTNV-1" parent="WIyWlLk6GJQsqaUBKTNV-0" />
        <mxCell id="gMKxESJ84tpYG7xQci_V-18" value="" style="endArrow=open;html=1;endSize=12;startArrow=diamondThin;startSize=14;startFill=0;edgeStyle=orthogonalEdgeStyle;align=left;verticalAlign=bottom;rounded=0;" parent="WIyWlLk6GJQsqaUBKTNV-1" edge="1">
          <mxGeometry x="-1" y="3" relative="1" as="geometry">
            <mxPoint x="59" y="218" as="sourcePoint" />
            <mxPoint x="59" y="290" as="targetPoint" />
            <Array as="points">
              <mxPoint x="59" y="288" />
            </Array>
          </mxGeometry>
        </mxCell>
        <mxCell id="zkfFHV4jXpPFQw0GAbJ--0" value="Game" style="swimlane;fontStyle=0;align=center;verticalAlign=top;childLayout=stackLayout;horizontal=1;startSize=26;horizontalStack=0;resizeParent=1;resizeLast=0;collapsible=1;marginBottom=0;rounded=0;shadow=0;strokeWidth=1;" parent="WIyWlLk6GJQsqaUBKTNV-1" vertex="1">
          <mxGeometry x="-21" y="80" width="160" height="138" as="geometry">
            <mxRectangle x="230" y="140" width="160" height="26" as="alternateBounds" />
          </mxGeometry>
        </mxCell>
        <mxCell id="Vok7YTthwsA8ZRmeQMo5-18" value="" style="endArrow=open;endFill=1;endSize=12;html=1;rounded=0;entryX=0.192;entryY=-0.01;entryDx=0;entryDy=0;entryPerimeter=0;" edge="1" parent="zkfFHV4jXpPFQw0GAbJ--0" target="gMKxESJ84tpYG7xQci_V-3">
          <mxGeometry width="160" relative="1" as="geometry">
            <mxPoint x="1" y="50" as="sourcePoint" />
            <mxPoint x="-81" y="385" as="targetPoint" />
            <Array as="points">
              <mxPoint x="-80" y="50" />
              <mxPoint x="-81" y="207" />
              <mxPoint x="-80" y="337" />
              <mxPoint x="-79" y="390" />
            </Array>
          </mxGeometry>
        </mxCell>
        <mxCell id="zkfFHV4jXpPFQw0GAbJ--4" value="" style="line;html=1;strokeWidth=1;align=left;verticalAlign=middle;spacingTop=-1;spacingLeft=3;spacingRight=3;rotatable=0;labelPosition=right;points=[];portConstraint=eastwest;" parent="zkfFHV4jXpPFQw0GAbJ--0" vertex="1">
          <mxGeometry y="26" width="160" height="94" as="geometry" />
        </mxCell>
        <mxCell id="zkfFHV4jXpPFQw0GAbJ--6" value="SpaceShip" style="swimlane;fontStyle=0;align=center;verticalAlign=top;childLayout=stackLayout;horizontal=1;startSize=26;horizontalStack=0;resizeParent=1;resizeLast=0;collapsible=1;marginBottom=0;rounded=0;shadow=0;strokeWidth=1;" parent="WIyWlLk6GJQsqaUBKTNV-1" vertex="1">
          <mxGeometry x="-331" y="487" width="160" height="138" as="geometry">
            <mxRectangle x="130" y="380" width="160" height="26" as="alternateBounds" />
          </mxGeometry>
        </mxCell>
        <mxCell id="zkfFHV4jXpPFQw0GAbJ--9" value="" style="line;html=1;strokeWidth=1;align=left;verticalAlign=middle;spacingTop=-1;spacingLeft=3;spacingRight=3;rotatable=0;labelPosition=right;points=[];portConstraint=eastwest;" parent="zkfFHV4jXpPFQw0GAbJ--6" vertex="1">
          <mxGeometry y="26" width="160" height="94" as="geometry" />
        </mxCell>
        <mxCell id="zkfFHV4jXpPFQw0GAbJ--17" value="Object" style="swimlane;fontStyle=0;align=center;verticalAlign=top;childLayout=stackLayout;horizontal=1;startSize=26;horizontalStack=0;resizeParent=1;resizeLast=0;collapsible=1;marginBottom=0;rounded=0;shadow=0;strokeWidth=1;" parent="WIyWlLk6GJQsqaUBKTNV-1" vertex="1">
          <mxGeometry x="-21" y="290" width="160" height="140" as="geometry">
            <mxRectangle x="550" y="140" width="160" height="26" as="alternateBounds" />
          </mxGeometry>
        </mxCell>
        <mxCell id="zkfFHV4jXpPFQw0GAbJ--23" value="" style="line;html=1;strokeWidth=1;align=left;verticalAlign=middle;spacingTop=-1;spacingLeft=3;spacingRight=3;rotatable=0;labelPosition=right;points=[];portConstraint=eastwest;" parent="zkfFHV4jXpPFQw0GAbJ--17" vertex="1">
          <mxGeometry y="26" width="160" height="114" as="geometry" />
        </mxCell>
        <mxCell id="gMKxESJ84tpYG7xQci_V-3" value="Alien" style="swimlane;fontStyle=0;align=center;verticalAlign=top;childLayout=stackLayout;horizontal=1;startSize=26;horizontalStack=0;resizeParent=1;resizeLast=0;collapsible=1;marginBottom=0;rounded=0;shadow=0;strokeWidth=1;" parent="WIyWlLk6GJQsqaUBKTNV-1" vertex="1">
          <mxGeometry x="-131" y="485" width="160" height="140" as="geometry">
            <mxRectangle x="550" y="140" width="160" height="26" as="alternateBounds" />
          </mxGeometry>
        </mxCell>
        <mxCell id="gMKxESJ84tpYG7xQci_V-4" value="" style="line;html=1;strokeWidth=1;align=left;verticalAlign=middle;spacingTop=-1;spacingLeft=3;spacingRight=3;rotatable=0;labelPosition=right;points=[];portConstraint=eastwest;" parent="gMKxESJ84tpYG7xQci_V-3" vertex="1">
          <mxGeometry y="26" width="160" height="114" as="geometry" />
        </mxCell>
        <mxCell id="Vok7YTthwsA8ZRmeQMo5-11" value="" style="endArrow=open;endFill=1;endSize=12;html=1;rounded=0;" edge="1" parent="gMKxESJ84tpYG7xQci_V-3">
          <mxGeometry width="160" relative="1" as="geometry">
            <mxPoint x="-40" y="82.66999999999996" as="sourcePoint" />
            <mxPoint x="1" y="83" as="targetPoint" />
          </mxGeometry>
        </mxCell>
        <mxCell id="gMKxESJ84tpYG7xQci_V-5" value="Laser" style="swimlane;fontStyle=0;align=center;verticalAlign=top;childLayout=stackLayout;horizontal=1;startSize=26;horizontalStack=0;resizeParent=1;resizeLast=0;collapsible=1;marginBottom=0;rounded=0;shadow=0;strokeWidth=1;" parent="WIyWlLk6GJQsqaUBKTNV-1" vertex="1">
          <mxGeometry x="-241" y="680" width="160" height="140" as="geometry">
            <mxRectangle x="550" y="140" width="160" height="26" as="alternateBounds" />
          </mxGeometry>
        </mxCell>
        <mxCell id="gMKxESJ84tpYG7xQci_V-6" value="" style="line;html=1;strokeWidth=1;align=left;verticalAlign=middle;spacingTop=-1;spacingLeft=3;spacingRight=3;rotatable=0;labelPosition=right;points=[];portConstraint=eastwest;" parent="gMKxESJ84tpYG7xQci_V-5" vertex="1">
          <mxGeometry y="26" width="160" height="114" as="geometry" />
        </mxCell>
        <mxCell id="gMKxESJ84tpYG7xQci_V-7" value="Obstacle" style="swimlane;fontStyle=0;align=center;verticalAlign=top;childLayout=stackLayout;horizontal=1;startSize=26;horizontalStack=0;resizeParent=1;resizeLast=0;collapsible=1;marginBottom=0;rounded=0;shadow=0;strokeWidth=1;" parent="WIyWlLk6GJQsqaUBKTNV-1" vertex="1">
          <mxGeometry x="79" y="485" width="160" height="140" as="geometry">
            <mxRectangle x="550" y="140" width="160" height="26" as="alternateBounds" />
          </mxGeometry>
        </mxCell>
        <mxCell id="gMKxESJ84tpYG7xQci_V-8" value="" style="line;html=1;strokeWidth=1;align=left;verticalAlign=middle;spacingTop=-1;spacingLeft=3;spacingRight=3;rotatable=0;labelPosition=right;points=[];portConstraint=eastwest;" parent="gMKxESJ84tpYG7xQci_V-7" vertex="1">
          <mxGeometry y="26" width="160" height="114" as="geometry" />
        </mxCell>
        <mxCell id="gMKxESJ84tpYG7xQci_V-31" value="" style="endArrow=block;endSize=16;endFill=0;html=1;rounded=0;" parent="gMKxESJ84tpYG7xQci_V-7" edge="1">
          <mxGeometry width="160" relative="1" as="geometry">
            <mxPoint x="190" y="205" as="sourcePoint" />
            <mxPoint x="160" y="85" as="targetPoint" />
            <Array as="points">
              <mxPoint x="190" y="85" />
            </Array>
          </mxGeometry>
        </mxCell>
        <mxCell id="gMKxESJ84tpYG7xQci_V-9" value="BlackHole" style="swimlane;fontStyle=0;align=center;verticalAlign=top;childLayout=stackLayout;horizontal=1;startSize=26;horizontalStack=0;resizeParent=1;resizeLast=0;collapsible=1;marginBottom=0;rounded=0;shadow=0;strokeWidth=1;" parent="WIyWlLk6GJQsqaUBKTNV-1" vertex="1">
          <mxGeometry x="-31" y="690" width="160" height="140" as="geometry">
            <mxRectangle x="550" y="140" width="160" height="26" as="alternateBounds" />
          </mxGeometry>
        </mxCell>
        <mxCell id="gMKxESJ84tpYG7xQci_V-10" value="" style="line;html=1;strokeWidth=1;align=left;verticalAlign=middle;spacingTop=-1;spacingLeft=3;spacingRight=3;rotatable=0;labelPosition=right;points=[];portConstraint=eastwest;" parent="gMKxESJ84tpYG7xQci_V-9" vertex="1">
          <mxGeometry y="26" width="160" height="114" as="geometry" />
        </mxCell>
        <mxCell id="gMKxESJ84tpYG7xQci_V-11" value="WormHole" style="swimlane;fontStyle=0;align=center;verticalAlign=top;childLayout=stackLayout;horizontal=1;startSize=26;horizontalStack=0;resizeParent=1;resizeLast=0;collapsible=1;marginBottom=0;rounded=0;shadow=0;strokeWidth=1;" parent="WIyWlLk6GJQsqaUBKTNV-1" vertex="1">
          <mxGeometry x="199" y="690" width="160" height="166" as="geometry">
            <mxRectangle x="550" y="140" width="160" height="26" as="alternateBounds" />
          </mxGeometry>
        </mxCell>
        <mxCell id="gMKxESJ84tpYG7xQci_V-12" value="" style="line;html=1;strokeWidth=1;align=left;verticalAlign=middle;spacingTop=-1;spacingLeft=3;spacingRight=3;rotatable=0;labelPosition=right;points=[];portConstraint=eastwest;" parent="gMKxESJ84tpYG7xQci_V-11" vertex="1">
          <mxGeometry y="26" width="160" height="114" as="geometry" />
        </mxCell>
        <mxCell id="gMKxESJ84tpYG7xQci_V-13" value="Astreoid" style="swimlane;fontStyle=0;align=center;verticalAlign=top;childLayout=stackLayout;horizontal=1;startSize=26;horizontalStack=0;resizeParent=1;resizeLast=0;collapsible=1;marginBottom=0;rounded=0;shadow=0;strokeWidth=1;" parent="WIyWlLk6GJQsqaUBKTNV-1" vertex="1">
          <mxGeometry x="79" y="850" width="160" height="140" as="geometry">
            <mxRectangle x="550" y="140" width="160" height="26" as="alternateBounds" />
          </mxGeometry>
        </mxCell>
        <mxCell id="gMKxESJ84tpYG7xQci_V-14" value="" style="line;html=1;strokeWidth=1;align=left;verticalAlign=middle;spacingTop=-1;spacingLeft=3;spacingRight=3;rotatable=0;labelPosition=right;points=[];portConstraint=eastwest;" parent="gMKxESJ84tpYG7xQci_V-13" vertex="1">
          <mxGeometry y="26" width="160" height="114" as="geometry" />
        </mxCell>
        <mxCell id="gMKxESJ84tpYG7xQci_V-15" value="MysteryBox" style="swimlane;fontStyle=0;align=center;verticalAlign=top;childLayout=stackLayout;horizontal=1;startSize=26;horizontalStack=0;resizeParent=1;resizeLast=0;collapsible=1;marginBottom=0;rounded=0;shadow=0;strokeWidth=1;" parent="WIyWlLk6GJQsqaUBKTNV-1" vertex="1">
          <mxGeometry x="279" y="485" width="160" height="140" as="geometry">
            <mxRectangle x="550" y="140" width="160" height="26" as="alternateBounds" />
          </mxGeometry>
        </mxCell>
        <mxCell id="gMKxESJ84tpYG7xQci_V-16" value="" style="line;html=1;strokeWidth=1;align=left;verticalAlign=middle;spacingTop=-1;spacingLeft=3;spacingRight=3;rotatable=0;labelPosition=right;points=[];portConstraint=eastwest;" parent="gMKxESJ84tpYG7xQci_V-15" vertex="1">
          <mxGeometry y="26" width="160" height="114" as="geometry" />
        </mxCell>
        <mxCell id="gMKxESJ84tpYG7xQci_V-20" value="" style="endArrow=block;endSize=16;endFill=0;html=1;rounded=0;exitX=0.376;exitY=-0.01;exitDx=0;exitDy=0;exitPerimeter=0;" parent="WIyWlLk6GJQsqaUBKTNV-1" source="zkfFHV4jXpPFQw0GAbJ--6" target="zkfFHV4jXpPFQw0GAbJ--23" edge="1">
          <mxGeometry width="160" relative="1" as="geometry">
            <mxPoint x="-271" y="480" as="sourcePoint" />
            <mxPoint x="-71" y="370" as="targetPoint" />
            <Array as="points">
              <mxPoint x="-271" y="373" />
            </Array>
          </mxGeometry>
        </mxCell>
        <mxCell id="gMKxESJ84tpYG7xQci_V-21" value="" style="endArrow=block;endSize=16;endFill=0;html=1;rounded=0;exitX=0.315;exitY=0.002;exitDx=0;exitDy=0;exitPerimeter=0;" parent="WIyWlLk6GJQsqaUBKTNV-1" source="gMKxESJ84tpYG7xQci_V-3" edge="1">
          <mxGeometry width="160" relative="1" as="geometry">
            <mxPoint x="-81" y="480" as="sourcePoint" />
            <mxPoint x="-21" y="400" as="targetPoint" />
            <Array as="points">
              <mxPoint x="-81" y="400" />
            </Array>
          </mxGeometry>
        </mxCell>
        <mxCell id="gMKxESJ84tpYG7xQci_V-22" value="" style="endArrow=block;endSize=16;endFill=0;html=1;rounded=0;" parent="WIyWlLk6GJQsqaUBKTNV-1" edge="1">
          <mxGeometry width="160" relative="1" as="geometry">
            <mxPoint x="-161" y="680" as="sourcePoint" />
            <mxPoint x="-21" y="350" as="targetPoint" />
            <Array as="points">
              <mxPoint x="-161" y="350" />
            </Array>
          </mxGeometry>
        </mxCell>
        <mxCell id="gMKxESJ84tpYG7xQci_V-27" value="" style="endArrow=block;endSize=16;endFill=0;html=1;rounded=0;" parent="WIyWlLk6GJQsqaUBKTNV-1" edge="1">
          <mxGeometry width="160" relative="1" as="geometry">
            <mxPoint x="179" y="485" as="sourcePoint" />
            <mxPoint x="139" y="405" as="targetPoint" />
            <Array as="points">
              <mxPoint x="179" y="405" />
            </Array>
          </mxGeometry>
        </mxCell>
        <mxCell id="gMKxESJ84tpYG7xQci_V-28" value="" style="endArrow=block;endSize=16;endFill=0;html=1;rounded=0;exitX=0.5;exitY=0;exitDx=0;exitDy=0;" parent="WIyWlLk6GJQsqaUBKTNV-1" source="gMKxESJ84tpYG7xQci_V-15" edge="1">
          <mxGeometry width="160" relative="1" as="geometry">
            <mxPoint x="349" y="485" as="sourcePoint" />
            <mxPoint x="139" y="355" as="targetPoint" />
            <Array as="points">
              <mxPoint x="359" y="355" />
            </Array>
          </mxGeometry>
        </mxCell>
        <mxCell id="gMKxESJ84tpYG7xQci_V-30" value="" style="endArrow=block;endSize=16;endFill=0;html=1;rounded=0;exitX=0.5;exitY=0;exitDx=0;exitDy=0;" parent="WIyWlLk6GJQsqaUBKTNV-1" source="gMKxESJ84tpYG7xQci_V-9" edge="1">
          <mxGeometry width="160" relative="1" as="geometry">
            <mxPoint x="39" y="680" as="sourcePoint" />
            <mxPoint x="79" y="570" as="targetPoint" />
            <Array as="points">
              <mxPoint x="49" y="570" />
            </Array>
          </mxGeometry>
        </mxCell>
        <mxCell id="gMKxESJ84tpYG7xQci_V-32" value="" style="endArrow=block;endSize=16;endFill=0;html=1;rounded=0;exitX=0.476;exitY=-0.011;exitDx=0;exitDy=0;exitPerimeter=0;" parent="WIyWlLk6GJQsqaUBKTNV-1" source="gMKxESJ84tpYG7xQci_V-13" edge="1">
          <mxGeometry width="160" relative="1" as="geometry">
            <mxPoint x="156.03999999999996" y="841.78" as="sourcePoint" />
            <mxPoint x="155" y="625" as="targetPoint" />
            <Array as="points">
              <mxPoint x="155" y="765" />
              <mxPoint x="155" y="655" />
              <mxPoint x="155" y="645" />
            </Array>
          </mxGeometry>
        </mxCell>
        <mxCell id="gMKxESJ84tpYG7xQci_V-46" value="" style="endArrow=diamondThin;endFill=0;endSize=24;html=1;rounded=0;exitX=0;exitY=0.75;exitDx=0;exitDy=0;" parent="WIyWlLk6GJQsqaUBKTNV-1" source="gMKxESJ84tpYG7xQci_V-5" edge="1">
          <mxGeometry width="160" relative="1" as="geometry">
            <mxPoint x="-331" y="680" as="sourcePoint" />
            <mxPoint x="-331" y="560" as="targetPoint" />
            <Array as="points">
              <mxPoint x="-411" y="785" />
              <mxPoint x="-411" y="560" />
              <mxPoint x="-381" y="560" />
            </Array>
          </mxGeometry>
        </mxCell>
        <mxCell id="gMKxESJ84tpYG7xQci_V-49" value="" style="endArrow=diamondThin;endFill=0;endSize=24;html=1;rounded=0;entryX=0.25;entryY=1;entryDx=0;entryDy=0;" parent="WIyWlLk6GJQsqaUBKTNV-1" target="gMKxESJ84tpYG7xQci_V-3" edge="1">
          <mxGeometry width="160" relative="1" as="geometry">
            <mxPoint x="-91" y="680" as="sourcePoint" />
            <mxPoint x="69" y="720" as="targetPoint" />
          </mxGeometry>
        </mxCell>
        <mxCell id="gMKxESJ84tpYG7xQci_V-50" value="&lt;span style=&quot;font-weight: normal;&quot;&gt;&lt;font style=&quot;font-size: 12px;&quot;&gt;1...*&lt;br&gt;&lt;/font&gt;&lt;/span&gt;" style="text;align=center;fontStyle=1;verticalAlign=middle;spacingLeft=3;spacingRight=3;strokeColor=none;rotatable=0;points=[[0,0.5],[1,0.5]];portConstraint=eastwest;html=1;" parent="WIyWlLk6GJQsqaUBKTNV-1" vertex="1">
          <mxGeometry x="39" y="264" width="80" height="26" as="geometry" />
        </mxCell>
        <mxCell id="NQD3n6qVmrkn3B2P8fM2-14" value="&lt;span style=&quot;font-weight: 400;&quot;&gt;1...*&lt;br&gt;&lt;/span&gt;" style="text;align=center;fontStyle=1;verticalAlign=middle;spacingLeft=3;spacingRight=3;strokeColor=none;rotatable=0;points=[[0,0.5],[1,0.5]];portConstraint=eastwest;html=1;" parent="WIyWlLk6GJQsqaUBKTNV-1" vertex="1">
          <mxGeometry x="340" y="625" width="80" height="26" as="geometry" />
        </mxCell>
        <mxCell id="NQD3n6qVmrkn3B2P8fM2-15" value="&lt;span style=&quot;font-weight: 400;&quot;&gt;1...*&lt;br&gt;&lt;/span&gt;" style="text;align=center;fontStyle=1;verticalAlign=middle;spacingLeft=3;spacingRight=3;strokeColor=none;rotatable=0;points=[[0,0.5],[1,0.5]];portConstraint=eastwest;html=1;" parent="WIyWlLk6GJQsqaUBKTNV-1" vertex="1">
          <mxGeometry x="-294" y="760" width="80" height="26" as="geometry" />
        </mxCell>
        <mxCell id="NQD3n6qVmrkn3B2P8fM2-21" value="&lt;span style=&quot;font-weight: 400;&quot;&gt;1...*&lt;br&gt;&lt;/span&gt;" style="text;align=center;fontStyle=1;verticalAlign=middle;spacingLeft=3;spacingRight=3;strokeColor=none;rotatable=0;points=[[0,0.5],[1,0.5]];portConstraint=eastwest;html=1;" parent="WIyWlLk6GJQsqaUBKTNV-1" vertex="1">
          <mxGeometry x="-116" y="654" width="80" height="26" as="geometry" />
        </mxCell>
        <mxCell id="NQD3n6qVmrkn3B2P8fM2-24" value="&lt;span style=&quot;font-weight: 400;&quot;&gt;1...*&lt;br&gt;&lt;/span&gt;" style="text;align=center;fontStyle=1;verticalAlign=middle;spacingLeft=3;spacingRight=3;strokeColor=none;rotatable=0;points=[[0,0.5],[1,0.5]];portConstraint=eastwest;html=1;" parent="WIyWlLk6GJQsqaUBKTNV-1" vertex="1">
          <mxGeometry x="-181" y="572" width="80" height="26" as="geometry" />
        </mxCell>
        <mxCell id="NQD3n6qVmrkn3B2P8fM2-37" value="SpaceShipLaser" style="swimlane;fontStyle=0;align=center;verticalAlign=top;childLayout=stackLayout;horizontal=1;startSize=26;horizontalStack=0;resizeParent=1;resizeLast=0;collapsible=1;marginBottom=0;rounded=0;shadow=0;strokeWidth=1;" parent="WIyWlLk6GJQsqaUBKTNV-1" vertex="1">
          <mxGeometry x="-374" y="850" width="160" height="140" as="geometry">
            <mxRectangle x="550" y="140" width="160" height="26" as="alternateBounds" />
          </mxGeometry>
        </mxCell>
        <mxCell id="NQD3n6qVmrkn3B2P8fM2-38" value="" style="line;html=1;strokeWidth=1;align=left;verticalAlign=middle;spacingTop=-1;spacingLeft=3;spacingRight=3;rotatable=0;labelPosition=right;points=[];portConstraint=eastwest;" parent="NQD3n6qVmrkn3B2P8fM2-37" vertex="1">
          <mxGeometry y="26" width="160" height="114" as="geometry" />
        </mxCell>
        <mxCell id="NQD3n6qVmrkn3B2P8fM2-39" value="AlienLaser" style="swimlane;fontStyle=0;align=center;verticalAlign=top;childLayout=stackLayout;horizontal=1;startSize=26;horizontalStack=0;resizeParent=1;resizeLast=0;collapsible=1;marginBottom=0;rounded=0;shadow=0;strokeWidth=1;" parent="WIyWlLk6GJQsqaUBKTNV-1" vertex="1">
          <mxGeometry x="-184" y="850" width="160" height="140" as="geometry">
            <mxRectangle x="550" y="140" width="160" height="26" as="alternateBounds" />
          </mxGeometry>
        </mxCell>
        <mxCell id="NQD3n6qVmrkn3B2P8fM2-40" value="" style="line;html=1;strokeWidth=1;align=left;verticalAlign=middle;spacingTop=-1;spacingLeft=3;spacingRight=3;rotatable=0;labelPosition=right;points=[];portConstraint=eastwest;" parent="NQD3n6qVmrkn3B2P8fM2-39" vertex="1">
          <mxGeometry y="26" width="160" height="114" as="geometry" />
        </mxCell>
        <mxCell id="NQD3n6qVmrkn3B2P8fM2-41" value="" style="endArrow=block;endSize=16;endFill=0;html=1;rounded=0;" parent="WIyWlLk6GJQsqaUBKTNV-1" edge="1">
          <mxGeometry width="160" relative="1" as="geometry">
            <mxPoint x="-121" y="850" as="sourcePoint" />
            <mxPoint x="-121" y="820" as="targetPoint" />
            <Array as="points">
              <mxPoint x="-121" y="850" />
              <mxPoint x="-121" y="840" />
            </Array>
          </mxGeometry>
        </mxCell>
        <mxCell id="NQD3n6qVmrkn3B2P8fM2-42" value="" style="endArrow=block;endSize=16;endFill=0;html=1;rounded=0;" parent="WIyWlLk6GJQsqaUBKTNV-1" edge="1">
          <mxGeometry width="160" relative="1" as="geometry">
            <mxPoint x="-294.48" y="830" as="sourcePoint" />
            <mxPoint x="-241" y="800" as="targetPoint" />
            <Array as="points">
              <mxPoint x="-294.48" y="850" />
              <mxPoint x="-294.48" y="830" />
              <mxPoint x="-294" y="800" />
            </Array>
          </mxGeometry>
        </mxCell>
        <mxCell id="Vok7YTthwsA8ZRmeQMo5-2" value="" style="endArrow=open;endFill=1;endSize=12;html=1;rounded=0;entryX=1;entryY=0;entryDx=0;entryDy=0;" edge="1" parent="WIyWlLk6GJQsqaUBKTNV-1" target="gMKxESJ84tpYG7xQci_V-7">
          <mxGeometry width="160" relative="1" as="geometry">
            <mxPoint x="139" y="153" as="sourcePoint" />
            <mxPoint x="180" y="200" as="targetPoint" />
            <Array as="points">
              <mxPoint x="240" y="153" />
              <mxPoint x="240" y="320" />
            </Array>
          </mxGeometry>
        </mxCell>
        <mxCell id="Vok7YTthwsA8ZRmeQMo5-5" value="" style="endArrow=open;endFill=1;endSize=12;html=1;rounded=0;entryX=0.562;entryY=0.006;entryDx=0;entryDy=0;exitX=0.006;exitY=0.5;exitDx=0;exitDy=0;exitPerimeter=0;entryPerimeter=0;" edge="1" parent="WIyWlLk6GJQsqaUBKTNV-1" source="zkfFHV4jXpPFQw0GAbJ--4" target="zkfFHV4jXpPFQw0GAbJ--6">
          <mxGeometry width="160" relative="1" as="geometry">
            <mxPoint x="-140" y="153" as="sourcePoint" />
            <mxPoint x="-40" y="485" as="targetPoint" />
            <Array as="points">
              <mxPoint x="-40" y="153" />
              <mxPoint x="-240" y="153" />
              <mxPoint x="-241" y="310" />
              <mxPoint x="-240" y="440" />
            </Array>
          </mxGeometry>
        </mxCell>
        <mxCell id="Vok7YTthwsA8ZRmeQMo5-7" value="" style="endArrow=open;endFill=1;endSize=12;html=1;rounded=0;exitX=0.018;exitY=0.054;exitDx=0;exitDy=0;exitPerimeter=0;" edge="1" parent="WIyWlLk6GJQsqaUBKTNV-1" target="gMKxESJ84tpYG7xQci_V-16">
          <mxGeometry width="160" relative="1" as="geometry">
            <mxPoint x="-259.55999999999995" y="624.404" as="sourcePoint" />
            <mxPoint x="560" y="650" as="targetPoint" />
            <Array as="points">
              <mxPoint x="-260" y="640" />
              <mxPoint x="-260" y="650" />
              <mxPoint x="-200" y="650" />
              <mxPoint x="-70" y="650" />
              <mxPoint x="200" y="650" />
              <mxPoint x="250" y="650" />
              <mxPoint x="310" y="650" />
              <mxPoint x="360" y="650" />
            </Array>
          </mxGeometry>
        </mxCell>
        <mxCell id="Vok7YTthwsA8ZRmeQMo5-14" value="" style="endArrow=open;endFill=1;endSize=12;html=1;rounded=0;entryX=1;entryY=0;entryDx=0;entryDy=0;" edge="1" parent="WIyWlLk6GJQsqaUBKTNV-1">
          <mxGeometry width="160" relative="1" as="geometry">
            <mxPoint x="140" y="120" as="sourcePoint" />
            <mxPoint x="408.5" y="485" as="targetPoint" />
            <Array as="points">
              <mxPoint x="360" y="120" />
              <mxPoint x="409" y="120" />
              <mxPoint x="409.5" y="320" />
            </Array>
          </mxGeometry>
        </mxCell>
        <mxCell id="Vok7YTthwsA8ZRmeQMo5-15" value="1...*" style="text;html=1;align=center;verticalAlign=middle;resizable=0;points=[];autosize=1;strokeColor=none;fillColor=none;" vertex="1" parent="WIyWlLk6GJQsqaUBKTNV-1">
          <mxGeometry x="414" y="455" width="40" height="30" as="geometry" />
        </mxCell>
        <mxCell id="Vok7YTthwsA8ZRmeQMo5-16" value="1...*" style="text;html=1;align=center;verticalAlign=middle;resizable=0;points=[];autosize=1;strokeColor=none;fillColor=none;" vertex="1" parent="WIyWlLk6GJQsqaUBKTNV-1">
          <mxGeometry x="240" y="455" width="40" height="30" as="geometry" />
        </mxCell>
        <mxCell id="Vok7YTthwsA8ZRmeQMo5-17" value="" style="endArrow=open;endFill=1;endSize=12;html=1;rounded=0;" edge="1" parent="WIyWlLk6GJQsqaUBKTNV-1">
          <mxGeometry width="160" relative="1" as="geometry">
            <mxPoint x="220" y="625" as="sourcePoint" />
            <mxPoint x="-309" y="625" as="targetPoint" />
            <Array as="points">
              <mxPoint x="220" y="656" />
              <mxPoint x="151" y="656" />
              <mxPoint x="-119" y="656" />
              <mxPoint x="-249" y="656" />
              <mxPoint x="-309" y="656" />
              <mxPoint x="-309" y="646" />
            </Array>
          </mxGeometry>
        </mxCell>
        <mxCell id="Vok7YTthwsA8ZRmeQMo5-19" value="1...*" style="text;html=1;align=center;verticalAlign=middle;resizable=0;points=[];autosize=1;strokeColor=none;fillColor=none;" vertex="1" parent="WIyWlLk6GJQsqaUBKTNV-1">
          <mxGeometry x="-141" y="457" width="40" height="30" as="geometry" />
        </mxCell>
      </root>
    </mxGraphModel>
  </diagram>
</mxfile>
